<svg width="37" height="35" viewBox="0 0 37 35" fill="none" xmlns="http://www.w3.org/2000/svg">
<path d="M33.6167 14.6485H32.3749V14.5887H18.4999V20.3443H27.2127C25.9415 23.6948 22.526 26.0999 18.4999 26.0999C13.3916 26.0999 9.24992 22.2343 9.24992 17.4665C9.24992 12.6988 13.3916 8.83319 18.4999 8.83319C20.8579 8.83319 23.0031 9.66343 24.6365 11.0196L28.9971 6.94969C26.2437 4.55466 22.5607 3.07764 18.4999 3.07764C9.98606 3.07764 3.08325 9.52026 3.08325 17.4665C3.08325 25.4128 9.98606 31.8554 18.4999 31.8554C27.0138 31.8554 33.9166 25.4128 33.9166 17.4665C33.9166 16.5018 33.8102 15.56 33.6167 14.6485Z" fill="#FFC107"/>
<path d="M4.86084 10.7692L9.92599 14.2362C11.2965 11.0692 14.6157 8.83319 18.5 8.83319C20.8579 8.83319 23.0032 9.66343 24.6366 11.0196L28.9972 6.94969C26.2438 4.55466 22.5607 3.07764 18.5 3.07764C12.5784 3.07764 7.44313 6.19787 4.86084 10.7692Z" fill="#FF3D00"/>
<path d="M18.5001 31.8556C22.4822 31.8556 26.1005 30.4332 28.8362 28.1202L24.0647 24.3518C22.4649 25.4873 20.51 26.1015 18.5001 26.1C14.4902 26.1 11.0854 23.7136 9.80277 20.3833L4.77539 23.9985C7.32685 28.6583 12.5084 31.8556 18.5001 31.8556Z" fill="#4CAF50"/>
<path d="M33.6168 14.6486H32.375V14.5889H18.5V20.3444H27.2127C26.6047 21.939 25.5095 23.3324 24.0623 24.3524L24.0646 24.351L28.8361 28.1195C28.4985 28.4058 33.9167 24.6611 33.9167 17.4666C33.9167 16.5019 33.8103 15.5601 33.6168 14.6486Z" fill="#1976D2"/>
</svg>
