<svg width="14" height="10" viewBox="0 0 14 10" fill="none" xmlns="http://www.w3.org/2000/svg">
<path d="M10.333 2.99992V1.66659C10.333 1.31296 10.1925 0.973825 9.94248 0.723776C9.69244 0.473728 9.3533 0.333252 8.99967 0.333252H1.66634C1.31272 0.333252 0.973581 0.473728 0.723532 0.723776C0.473484 0.973825 0.333008 1.31296 0.333008 1.66659V8.33325C0.333008 8.68688 0.473484 9.02602 0.723532 9.27606C0.973581 9.52611 1.31272 9.66659 1.66634 9.66659H8.99967C9.3533 9.66659 9.69244 9.52611 9.94248 9.27606C10.1925 9.02602 10.333 8.68688 10.333 8.33325V6.99992L13.6663 9.66659V0.333252L10.333 2.99992Z" fill="#666666"/>
</svg>
